HIERARCHY
ROOT Hips
{
	OFFSET -3.958830 18.904000 13.208200
	CHANNELS 6 Xposition Yposition Zposition Zrotation Yrotation Xrotation 
	JOINT LHipJoint
	{
		OFFSET 0.000000 0.000000 0.000000
		CHANNELS 3 Zrotation Yrotation Xrotation
		JOINT LeftUpLeg
		{
			OFFSET 1.800000 -1.400000 0.085000
			CHANNELS 3 Zrotation Yrotation Xrotation
			JOINT LeftLeg
			{
				OFFSET 2.215000 -6.000000 0.000000
				CHANNELS 3 Zrotation Yrotation Xrotation
				JOINT LeftFoot
				{
					OFFSET 2.500000 -6.900000 0.000000
					CHANNELS 3 Zrotation Yrotation Xrotation
					JOINT LeftToeBase
					{
						OFFSET 0.200000 -0.500000 1.950000
						CHANNELS 3 Zrotation Yrotation Xrotation
						End Site
						{
							OFFSET 0.000000 0.000000 0.000000
						}
					}
				}
			}
		}
	}
	JOINT RHipJoint
	{
		OFFSET 0.000000 0.000000 0.000000
		CHANNELS 3 Zrotation Yrotation Xrotation
		JOINT RightUpLeg
		{
			OFFSET -1.800000 -1.400000 0.085000
			CHANNELS 3 Zrotation Yrotation Xrotation
			JOINT RightLeg
			{
				OFFSET -2.215000 -6.000000 0.000000
				CHANNELS 3 Zrotation Yrotation Xrotation
				JOINT RightFoot
				{
					OFFSET -2.500000 -6.900000 0.000000
					CHANNELS 3 Zrotation Yrotation Xrotation
					JOINT RightToeBase
					{
						OFFSET -0.200000 -0.500000 1.950000
						CHANNELS 3 Zrotation Yrotation Xrotation
						End Site
						{
							OFFSET 0.000000 0.000000 0.000000
						}
					}
				}
			}
		}
	}
	JOINT LowerBack
	{
		OFFSET 0.000000 0.000000 0.000000
		CHANNELS 3 Zrotation Yrotation Xrotation
		JOINT Spine
		{
			OFFSET -0.087000 1.940000 -0.288900
			CHANNELS 3 Zrotation Yrotation Xrotation
			JOINT Spine1
			{
				OFFSET 0.000000 1.950000 0.060000
				CHANNELS 3 Zrotation Yrotation Xrotation
				JOINT Neck
				{
					OFFSET 0.000000 0.000000 0.000000
					CHANNELS 3 Zrotation Yrotation Xrotation
					JOINT Neck1
					{
						OFFSET 0.000000 1.600000 0.340000
						CHANNELS 3 Zrotation Yrotation Xrotation
						JOINT Head
						{
							OFFSET 0.000000 1.667000 -0.240000
							CHANNELS 3 Zrotation Yrotation Xrotation
							End Site
							{
								OFFSET 0.000000 0.000000 0.000000
							}
						}
					}
				}
				JOINT LeftShoulder
				{
					OFFSET 0.000000 0.000000 0.000000
					CHANNELS 3 Zrotation Yrotation Xrotation
					JOINT LeftArm
					{
						OFFSET 2.700000 1.550000 -0.730000
						CHANNELS 3 Zrotation Yrotation Xrotation
						JOINT LeftForeArm
						{
							OFFSET 5.450000 0.000000 0.000000
							CHANNELS 3 Zrotation Yrotation Xrotation
							JOINT LeftHand
							{
								OFFSET 3.450000 0.000000 0.000000
								CHANNELS 3 Zrotation Yrotation Xrotation
								JOINT LeftHandIndex1
								{
									OFFSET 0.750000 0.000000 0.000000
									CHANNELS 3 Zrotation Yrotation Xrotation
									End Site
									{
										OFFSET 0.000000 0.000000 0.000000
									}
								}
							}
						}
					}
				}
				JOINT RightShoulder
				{
					OFFSET 0.000000 0.000000 0.000000
					CHANNELS 3 Zrotation Yrotation Xrotation
					JOINT RightArm
					{
						OFFSET -2.700000 1.550000 -0.730000
						CHANNELS 3 Zrotation Yrotation Xrotation
						JOINT RightForeArm
						{
							OFFSET -5.450000 0.000000 0.000000
							CHANNELS 3 Zrotation Yrotation Xrotation
							JOINT RightHand
							{
								OFFSET -3.450000 0.000000 0.000000
								CHANNELS 3 Zrotation Yrotation Xrotation
								JOINT RightHandIndex1
								{
									OFFSET -0.750000 0.000000 0.000000
									CHANNELS 3 Zrotation Yrotation Xrotation
									End Site
									{
										OFFSET 0.000000 0.000000 0.000000
									}
								}
							}
						}
					}
				}
			}
		}
	}
}
MOTION
Frames: 8
Frame Time: 0.016667
0.053430 16.635720 -2.689000 -4.975017 6.351744 -8.211321 -15.263111 12.885349 2.351554 6.535033 -1.090632 -0.529099 -6.515197 5.534720 8.430042 -0.665051 4.822900 3.001013 0.590320 0.327270 0.492030 18.518371 -8.300313 5.422481 -4.166622 7.898409 -60.665885 0.707047 -16.671422 74.997482 -2.088459 -12.139248 0.229103 0.353160 0.208940 0.288100 -3.782264 -4.074561 -9.014778 10.508712 -7.728071 19.121737 -0.252484 -5.945197 14.742224 -1.843265 -0.903553 -13.750193 -7.560235 1.005725 41.181437 -1.823480 1.570070 -14.171990 -31.941009 -35.020613 4.146238 -14.520935 -26.830001 -11.121186 27.364352 -48.880805 -13.255070 -3.772542 2.689459 0.672230 0.116160 0.118230 0.154990 35.346976 29.505957 14.219407 41.925045 0.741063 -7.787553 -5.995018 20.080216 -2.156187 1.830815 -1.450769 -0.274050 0.353980 -0.002840 -0.262620 
0.050930 16.633500 -2.673670 -4.936146 6.339221 -8.213528 -15.262631 12.941862 2.372788 6.498491 -1.078848 -0.492327 -6.391235 5.546658 8.594754 -0.657052 4.830745 3.007378 0.577430 0.312370 0.483700 18.502207 -8.376674 5.337139 -4.039424 7.565029 -59.836881 0.656388 -16.345277 73.823345 -2.027486 -11.911843 0.292425 0.341700 0.222330 0.286820 -3.764531 -4.090146 -8.981073 10.448018 -7.705505 18.974566 -0.136568 -5.987373 14.554395 -1.833594 -0.958015 -13.695049 -7.681202 1.012057 41.229764 -1.820600 1.516290 -13.939430 -32.178203 -34.738173 4.212427 -15.027138 -26.984447 -10.961278 26.802699 -49.156195 -13.093333 -3.765937 2.683391 0.668910 0.121780 0.112120 0.156160 35.590198 29.274713 14.171416 41.635272 0.557423 -7.591494 -5.564821 19.656119 -2.026621 1.839222 -1.438857 -0.277490 0.359760 0.001370 -0.257940 
0.046490 16.624190 -2.644900 -4.818734 6.287157 -8.107934 -15.264914 13.030192 2.405472 6.362306 -1.047920 -0.455237 -6.130231 5.543911 8.823786 -0.650313 4.832354 3.013410 0.555580 0.288820 0.466940 18.475901 -8.503736 5.190727 -3.749031 7.030226 -58.584754 0.270450 -15.553626 71.777430 -1.904012 -11.485439 0.413050 0.328700 0.238960 0.285230 -3.731571 -4.103291 -8.914230 10.247914 -7.624107 18.506673 -0.024554 -6.031425 14.410929 -1.761883 -0.898126 -13.586257 -7.525291 0.985422 41.134890 -1.986170 1.590630 -13.338540 -32.378484 -34.329403 4.401990 -16.010604 -27.291150 -10.700750 26.385464 -49.779730 -13.122077 -3.765782 2.677317 0.653540 0.138380 0.095410 0.154800 35.665646 28.921383 13.999663 41.498873 0.415380 -7.221587 -4.788446 18.985943 -1.834865 1.848928 -1.424644 -0.282170 0.358440 0.010180 -0.255360 
0.037250 16.609950 -2.604990 -4.501900 6.242551 -7.951451 -15.279756 13.148489 2.464123 6.099106 -0.993123 -0.338892 -5.913283 5.554525 9.051872 -0.640628 4.848257 3.019848 0.528980 0.259070 0.447650 18.429068 -8.673710 4.984494 -3.381957 6.288008 -56.919816 -0.394559 -14.371869 68.900923 -1.732135 -10.870540 0.587255 0.313600 0.264580 0.282670 -3.653799 -4.128840 -8.830502 9.604770 -7.382189 17.842880 0.236746 -6.018739 14.313521 -1.739429 -0.664423 -13.440345 -7.029478 0.845989 41.038503 -2.059240 1.663600 -12.574420 -32.541368 -33.874965 4.636234 -17.316123 -27.810828 -10.295965 25.697884 -50.606620 -13.090348 -3.763364 2.668102 0.636670 0.159430 0.073820 0.154970 35.823511 28.452105 13.764594 41.501831 0.293352 -6.759186 -4.068767 18.033524 -1.641357 1.863496 -1.408066 -0.291810 0.361200 0.020580 -0.251610 
0.027440 16.588130 -2.554250 -4.019141 6.169313 -7.649324 -15.303673 13.258569 2.528188 5.718262 -0.906053 -0.114865 -5.781815 5.569597 9.174224 -0.625117 4.880947 3.020287 0.504830 0.230930 0.422420 18.379138 -8.855833 4.736703 -3.085764 5.406513 -55.192364 -1.250441 -13.003088 65.462351 -1.530415 -10.153671 0.788318 0.302440 0.297300 0.293830 -3.559445 -4.140874 -8.705102 8.760108 -7.050224 16.686625 0.577961 -5.971582 14.463746 -1.802635 -0.334672 -13.189327 -6.310660 0.518965 40.631643 -2.244930 1.646340 -11.405090 -32.006343 -33.208792 4.927944 -19.462115 -28.912811 -9.561695 25.170087 -51.110473 -13.153945 -3.765929 2.672114 0.605590 0.192520 0.045610 0.160000 35.443452 27.751816 13.278474 42.103181 0.422024 -6.228717 -3.605112 16.936703 -1.504558 1.883722 -1.407898 -0.294720 0.350510 0.031320 -0.242880 
0.011020 16.564680 -2.499450 -3.410565 5.791686 -7.453431 -15.335676 13.428971 2.610462 5.285670 -0.841629 -0.155048 -5.642071 5.634186 9.805827 -0.614676 4.913443 3.018329 0.484290 0.204800 0.407750 18.302050 -9.104358 4.424928 -2.676906 4.462507 -52.617906 -2.130810 -11.447883 61.066925 -1.299534 -9.241490 1.057498 0.289820 0.321550 0.301450 -3.412281 -4.165335 -8.556283 7.539778 -6.609475 15.762500 1.105910 -5.843210 14.610952 -1.909347 0.066216 -13.066872 -5.466546 0.196992 40.319275 -2.471740 1.752110 -10.494280 -31.335235 -32.711821 5.219668 -21.400153 -29.755979 -8.904987 24.335287 -51.990854 -13.147275 -3.757323 2.676825 0.585420 0.218330 0.024910 0.163010 35.048549 27.228622 12.901162 42.885244 0.507240 -5.878927 -3.465771 16.071773 -1.431092 1.901729 -1.408764 -0.299750 0.341520 0.036610 -0.239220 
-0.008380 16.536390 -2.439080 -2.742753 5.205144 -7.031407 -15.375814 13.584720 2.710701 4.890981 -0.756433 -0.199735 -5.779017 5.694738 9.936593 -0.598169 4.951910 3.022345 0.449280 0.169720 0.378970 18.221791 -9.351815 4.072753 -2.363113 3.514368 -49.715078 -2.787539 -9.986117 55.982459 -1.049135 -8.230032 1.372886 0.275330 0.358890 0.305230 -3.244161 -4.182994 -8.368535 6.197558 -6.190044 14.532791 1.611266 -5.712995 14.565856 -2.029348 0.536247 -12.697192 -4.429706 -0.171354 39.624036 -2.887420 1.938810 -9.353230 -30.557921 -31.852938 5.363561 -23.568165 -30.698696 -7.884768 23.369679 -52.912908 -13.032195 -3.764034 2.680397 0.553030 0.255500 -0.005880 0.167820 34.578431 26.280371 12.315573 43.919314 0.767441 -5.503011 -3.513178 15.190334 -1.391078 1.923430 -1.410421 -0.310990 0.337810 0.047310 -0.231410 
-0.030680 16.503390 -2.374720 -2.067243 4.640991 -6.516977 -15.420015 13.732892 2.805358 4.584099 -0.690805 -0.158529 -6.092300 5.799693 10.001879 -0.577916 5.025242 3.017002 0.413070 0.132500 0.346800 18.147599 -9.560555 3.717712 -2.246432 2.539722 -46.973143 -3.159899 -8.742783 50.552867 -0.799316 -7.194364 1.711329 0.262690 0.405120 0.309580 -3.075525 -4.249725 -8.149681 4.871643 -5.996832 13.161030 2.030499 -5.755140 14.496301 -2.258254 0.918797 -12.243547 -3.543572 -0.376356 38.537303 -3.160540 2.139340 -8.234900 -29.405769 -30.830730 5.471748 -25.855934 -31.701853 -6.712539 22.732525 -53.783823 -13.067010 -3.783198 2.685620 0.515340 0.298400 -0.043900 0.173410 33.928470 25.101681 11.555410 45.275001 1.298315 -5.170131 -3.886801 14.357240 -1.403708 1.944909 -1.416227 -0.324400 0.337190 0.061350 -0.221900 
